<?xml version="1.0" standalone="no"?>
<!DOCTYPE svg PUBLIC "-//W3C//DTD SVG 20010904//EN"
 "http://www.w3.org/TR/2001/REC-SVG-20010904/DTD/svg10.dtd">
<svg version="1.0" xmlns="http://www.w3.org/2000/svg"
 width="700.000000pt" height="700.000000pt" viewBox="0 0 700.000000 700.000000"
 preserveAspectRatio="xMidYMid meet">
<metadata>
Created by potrace 1.14, written by Peter Selinger 2001-2017
</metadata>
<g transform="translate(0.000000,700.000000) scale(0.100000,-0.100000)"
fill="#000000" stroke="none">
<path d="M0 3500 l0 -3500 3500 0 3500 0 0 3500 0 3500 -3500 0 -3500 0 0
-3500z m2485 1693 c202 -28 438 -99 598 -179 l67 -34 0 -330 0 -330 -71 46
c-88 57 -270 145 -369 178 -153 51 -272 69 -455 70 -179 1 -231 -6 -365 -50
-277 -90 -484 -333 -560 -657 -56 -241 -48 -547 21 -772 49 -163 159 -333 279
-433 76 -62 237 -144 330 -166 366 -88 786 1 1158 245 l32 21 0 -332 0 -331
-87 -41 c-180 -83 -427 -152 -643 -178 -186 -22 -504 -10 -695 26 -231 45
-420 118 -595 231 -227 147 -395 334 -514 572 -172 341 -221 809 -131 1241 97
470 376 833 798 1039 223 109 434 161 752 185 89 7 337 -5 450 -21z m3140 -50
c4 -10 267 -720 585 -1578 318 -858 581 -1568 585 -1577 7 -17 -17 -18 -408
-18 l-415 0 -78 227 c-42 126 -88 255 -100 288 l-22 60 -643 0 -643 0 -100
-287 -101 -288 -412 0 c-227 0 -413 2 -413 4 0 3 1127 3049 1170 3160 l10 26
489 0 c456 0 489 -1 496 -17z"/>
<path d="M4912 3776 c-117 -338 -212 -619 -212 -625 0 -8 129 -11 430 -11 237
0 430 3 430 8 0 17 -424 1242 -430 1242 -4 0 -102 -276 -218 -614z"/>
</g>
</svg>
