<svg xmlns="http://www.w3.org/2000/svg" width="462.906" height="387.726" viewBox="0 0 462.906 387.726"><defs><style>.a{fill:#9e616a;}.b{fill:#2f2e41;}.c{fill:#3f3d56;}.d{fill:#7067cf;}.e{fill:#ccc;}.f{fill:#e6e6e6;}.g{fill:#2d293d;}.h{fill:#a0616a;}</style></defs><path class="a" d="M748.1,653.925H741.19L737.9,627.268h10.2Z" transform="translate(-321.934 -273.666)"/><path class="b" d="M931.29,785.607H909.006v-.282a8.674,8.674,0,0,1,8.673-8.673h13.612Z" transform="translate(-503.361 -398.649)"/><path class="a" d="M701.1,653.925H694.19L690.9,627.268h10.2Z" transform="translate(-301.429 -273.666)"/><path class="b" d="M884.29,785.607H862.006v-.282a8.674,8.674,0,0,1,8.673-8.673h13.612Z" transform="translate(-482.855 -398.649)"/><path class="c" d="M368.748,621.157V407.052a4.972,4.972,0,0,1,4.972-4.972h22.188a4.972,4.972,0,0,1,4.972,4.972h0V621.716Z" transform="translate(-267.655 -235.23)"/><path class="c" d="M498.748,656.295V486.052a4.972,4.972,0,0,1,4.972-4.972h22.188a4.972,4.972,0,0,1,4.972,4.972h0V655.928Z" transform="translate(-324.372 -269.697)"/><path class="c" d="M266.439,300.66a1.691,1.691,0,0,1-1.259-2.82l74.188-82.749,73.012,41,73.446-126.553,74.821,61.583a1.691,1.691,0,0,1-2.15,2.612L486.752,134.68l-73.12,125.992-73.555-41.3L267.7,300.1A1.686,1.686,0,0,1,266.439,300.66Z" transform="translate(-222.282 -116.325)"/><circle class="d" cx="15.784" cy="15.784" r="15.784" transform="translate(28.091 166.86)"/><circle class="e" cx="15.784" cy="15.784" r="15.784" transform="translate(101.374 85.121)"/><circle class="f" cx="15.784" cy="15.784" r="15.784" transform="translate(174.658 126.273)"/><circle class="d" cx="15.784" cy="15.784" r="15.784" transform="translate(247.941)"/><circle class="d" cx="15.784" cy="15.784" r="15.784" transform="translate(388.87 117.555)"/><path class="c" d="M882.718,559.189c5.908.712,21.015-4.678,21.834,3.521,7.776,22.89,7.545,110.633,7.545,110.633l-11.838.564s-9.46-69.717-13.933-84.632c-2.245,18.129-1.851,87.451-1.851,87.451l-10.711.564s-9.607-59.031-9.662-76.357c-1.168-12.691,1.7-31.5.471-43.767a46.911,46.911,0,0,0,18.146,2.024Z" transform="translate(-483.645 -302.891)"/><path class="c" d="M758.748,595.134V348.365c0-3.165,2.226-5.731,4.972-5.731h22.188c2.746,0,4.972,2.565,4.972,5.731V595.78Z" transform="translate(-437.806 -209.295)"/><path class="a" d="M842.139,410.52a73.658,73.658,0,0,0-8.63-13.625,21.6,21.6,0,0,1-1.917-2.616c-1.212-2.1-1.573-4.572-2.339-6.872-2.142-6.449-7.486-11.63-8.788-18.3-.474-2.424-4.474,4.621-3.422,7.627,1.877,5.44,2.12,11.2,4.51,16.455s5.2,10.293,7.261,15.666c1.172,3.05,2.108,6.2,3.828,9.019s4.4,5.181,7.644,5.6a18.856,18.856,0,0,1,.919-6.021C841.908,415.238,843.159,412.623,842.139,410.52Z" transform="translate(-463.162 -220.628)"/><path class="a" d="M919.614,415.939a31.151,31.151,0,0,1,1.832-11.714,12.14,12.14,0,0,0,1.077-4.425,10.853,10.853,0,0,0-1.364-4.008A102.809,102.809,0,0,1,916.085,382l-2.819-8.822c-.919-.674,4.448-.908,5.592.676,3.743,5.2,6.579,11.167,9.544,16.844a28.5,28.5,0,0,1,1.928,4.222,23.216,23.216,0,0,1,1.015,7.294,101.222,101.222,0,0,1-1.24,13.794c-.4,2.869-.924,5.992-3.095,7.892A44.675,44.675,0,0,0,919.614,415.939Z" transform="translate(-505.174 -222.394)"/><circle class="a" cx="11.697" cy="11.697" r="11.697" transform="translate(387.839 165.583)"/><path class="g" d="M881.2,394.909a2.031,2.031,0,0,1,.428-2.1c.292-.23.68-.316.993-.536a4.284,4.284,0,0,0,1.071-1.355,5.815,5.815,0,0,1,7.277-1.847c1.933,1.012,3.1,3.038,4.819,4.4.873.707,1.885,1.231,2.763,1.938a11.358,11.358,0,0,1,3.582,5.794,32.873,32.873,0,0,1,.993,6.835,6.145,6.145,0,0,1-.08,2.078,5.813,5.813,0,0,1-.787,1.607,17.891,17.891,0,0,1-7.015,6.49,10.836,10.836,0,0,1-9.347.161,1.606,1.606,0,0,1-.717-.573,2.062,2.062,0,0,1-.112-1.237,8.466,8.466,0,0,0-.932-4.739c-.536-1.071-1.339-1.992-1.767-3.1a10.8,10.8,0,0,1-.5-3.844C881.818,401.512,882.047,398.155,881.2,394.909Z" transform="translate(-491.175 -229.299)"/><path class="c" d="M238.747,696.8V577.667c0-1.528,2.226-2.767,4.972-2.767h22.188c2.746,0,4.972,1.24,4.972,2.767V697.114Z" transform="translate(-210.938 -310.629)"/><path class="f" d="M651.762,793.028H189.98a.564.564,0,1,1,0-1.127H651.759a.564.564,0,0,1,0,1.127Z" transform="translate(-189.416 -405.303)"/><path class="d" d="M628.747,568.64V288.6c0-3.591,2.226-6.5,4.972-6.5h22.188c2.746,0,4.972,2.912,4.972,6.5V569.37Z" transform="translate(-381.089 -182.885)"/><circle class="h" cx="5.073" cy="5.073" r="5.073" transform="translate(348.48 144.518)"/><circle class="h" cx="5.073" cy="5.073" r="5.073" transform="translate(404.852 142.263)"/><path class="f" d="M893.529,454.17c.5-.453,4.531-24.056,4.507-24.588-.062-2.908-8.935-6.229-10.711-5.073-1.675,1.09-4.592,13.6-6.47,15.877l-1.986-3.475H863.086l-.957,1.777c-2.071-1.248-3.934-2.4-4.6-2.779a2.991,2.991,0,0,0-.739-.364,11.449,11.449,0,0,1-4.51-2.12c-1.3-1-7.314-11.448-8.926-11.171-1.821.3-7.962,5.615-7.892,10.711.773-.017,10.831,20.1,10.972,20.845.772,3.168,3.322,49.37,4.145,51.524,3.792-.366.8-1.02,4.468,0,3.952,1.1,8.123-.09,12.2-.53a46.877,46.877,0,0,1,5.107-.226c6.2.028,15.051.372,21.055,1.911.034-3.935-3.422-12.447-4.7-16.162a10.851,10.851,0,0,1,.017-3.348C888.889,485.619,892.19,455.672,893.529,454.17Z" transform="translate(-471.275 -244.03)"/></svg>