<svg xmlns="http://www.w3.org/2000/svg" width="16" height="16" viewBox="0 0 16 16"><defs><style>.a{fill:#faa916;}</style></defs><path class="a" d="M0,12.666V14c0,1.1,2.688,2,6,2s6-.9,6-2V12.666C10.709,13.575,8.35,14,6,14S1.291,13.575,0,12.666ZM10,4c3.313,0,6-.9,6-2s-2.687-2-6-2S4,.9,4,2,6.688,4,10,4ZM0,9.388V11c0,1.1,2.688,2,6,2s6-.9,6-2V9.388C10.709,10.45,8.347,11,6,11S1.291,10.45,0,9.388Zm13,.344c1.791-.347,3-.991,3-1.731V6.666a7.674,7.674,0,0,1-3,1.078ZM6,5C2.688,5,0,6.119,0,7.5S2.688,10,6,10s6-1.119,6-2.5S9.313,5,6,5Zm6.853,1.759C14.728,6.422,16,5.759,16,5V3.666a10.174,10.174,0,0,1-5.022,1.306A3.5,3.5,0,0,1,12.853,6.759Z"/></svg>