<svg xmlns="http://www.w3.org/2000/svg" width="16" height="12.501" viewBox="0 0 16 12.501"><defs><style>.a{fill:#06a77d;}</style></defs><path class="a" d="M0,7.437v-.5a.75.75,0,0,1,.75-.75H12v-1.5a.751.751,0,0,1,1.28-.53l2.5,2.5a.75.75,0,0,1,0,1.061l-2.5,2.5A.751.751,0,0,1,12,9.687v-1.5H.75A.75.75,0,0,1,0,7.437Zm15.25,4.75H4v-1.5a.751.751,0,0,0-1.28-.53l-2.5,2.5a.75.75,0,0,0,0,1.061l2.5,2.5A.751.751,0,0,0,4,15.687v-1.5H15.25a.75.75,0,0,0,.75-.75v-.5A.75.75,0,0,0,15.25,12.187Z" transform="translate(0 -3.936)"/></svg>