<svg xmlns="http://www.w3.org/2000/svg" width="36" height="35.101" viewBox="0 0 36 35.101"><defs><style>.a{fill:#fff;}</style></defs><path class="a" d="M17.768.563A17.4,17.4,0,0,0,0,18.272,18.2,18.2,0,0,0,12.3,35.633c.929.167,1.256-.406,1.256-.878,0-.45-.022-2.932-.022-4.456,0,0-5.081,1.089-6.148-2.163,0,0-.827-2.112-2.018-2.656,0,0-1.662-1.14.116-1.118a3.831,3.831,0,0,1,2.8,1.873,3.837,3.837,0,0,0,5.291,1.517,4.034,4.034,0,0,1,1.161-2.446c-4.057-.45-8.151-1.038-8.151-8.02A5.5,5.5,0,0,1,8.3,13.01a6.858,6.858,0,0,1,.189-4.928c1.517-.472,5.008,1.96,5.008,1.96a17.147,17.147,0,0,1,9.116,0s3.491-2.439,5.008-1.96a6.854,6.854,0,0,1,.189,4.928,5.642,5.642,0,0,1,1.873,4.275c0,7-4.275,7.563-8.332,8.02a4.292,4.292,0,0,1,1.234,3.368c0,2.446-.022,5.473-.022,6.068,0,.472.334,1.045,1.256.878A18.029,18.029,0,0,0,36,18.272C36,8.205,27.835.563,17.768.563Z" transform="translate(0 -0.563)"/></svg>