<svg xmlns="http://www.w3.org/2000/svg" width="42" height="40.951" viewBox="0 0 42 40.951"><defs><style>.a{fill:#7067cf;}</style></defs><path class="a" d="M14.048,33.536c0,.169-.195.3-.44.3-.279.025-.474-.11-.474-.3,0-.169.195-.3.44-.3C13.828,33.206,14.048,33.341,14.048,33.536Zm-2.633-.381c-.059.169.11.364.364.415A.4.4,0,0,0,12.3,33.4c.051-.169-.11-.364-.364-.44A.435.435,0,0,0,11.415,33.155Zm3.743-.144c-.246.059-.415.22-.39.415.025.169.246.279.5.22s.415-.22.39-.39S15.4,32.985,15.157,33.011ZM20.729.563A20.3,20.3,0,0,0,0,21.224,21.229,21.229,0,0,0,14.353,41.479c1.084.195,1.465-.474,1.465-1.025,0-.525-.025-3.421-.025-5.2,0,0-5.927,1.27-7.172-2.523,0,0-.965-2.464-2.354-3.1,0,0-1.939-1.329.135-1.3A4.47,4.47,0,0,1,9.67,30.513c1.854,3.269,4.962,2.329,6.173,1.77A4.706,4.706,0,0,1,17.2,29.429c-4.733-.525-9.509-1.211-9.509-9.357a6.418,6.418,0,0,1,2-4.987,8,8,0,0,1,.22-5.75c1.77-.55,5.843,2.286,5.843,2.286a20,20,0,0,1,10.635,0s4.073-2.845,5.843-2.286a8,8,0,0,1,.22,5.75,6.582,6.582,0,0,1,2.185,4.987c0,8.171-4.987,8.823-9.721,9.357a5.008,5.008,0,0,1,1.44,3.929c0,2.854-.025,6.385-.025,7.079,0,.55.39,1.219,1.465,1.025A21.034,21.034,0,0,0,42,21.224C42,9.479,32.474.563,20.729.563ZM8.231,29.768c-.11.085-.085.279.059.44.135.135.33.195.44.085.11-.085.085-.279-.059-.44C8.535,29.717,8.341,29.658,8.231,29.768Zm-.915-.686c-.059.11.025.246.195.33a.252.252,0,0,0,.364-.059c.059-.11-.025-.246-.195-.33C7.511,28.972,7.375,29,7.316,29.082ZM10.06,32.1c-.135.11-.085.364.11.525.195.195.44.22.55.085.11-.11.059-.364-.11-.525C10.424,31.986,10.17,31.961,10.06,32.1Zm-.965-1.245c-.135.085-.135.3,0,.5s.364.279.474.195a.386.386,0,0,0,0-.525C9.45,30.826,9.23,30.742,9.094,30.852Z" transform="translate(0 -0.563)"/></svg>