<svg xmlns="http://www.w3.org/2000/svg" width="10" height="10" viewBox="0 0 10 10"><defs><style>.a{fill:#fff;}</style></defs><path class="a" d="M5.563.563a5,5,0,1,0,5,5A5,5,0,0,0,5.563.563Zm0,2.218a.847.847,0,1,1-.847.847A.847.847,0,0,1,5.563,2.78ZM6.692,7.9a.242.242,0,0,1-.242.242H4.675A.242.242,0,0,1,4.433,7.9V7.417a.242.242,0,0,1,.242-.242h.242V5.885H4.675a.242.242,0,0,1-.242-.242V5.159a.242.242,0,0,1,.242-.242h1.29a.242.242,0,0,1,.242.242V7.175H6.45a.242.242,0,0,1,.242.242Z" transform="translate(-0.563 -0.563)"/></svg>
