<svg xmlns="http://www.w3.org/2000/svg" width="42" height="42" viewBox="0 0 42 42"><defs><style>.a{fill:#7067cf;}</style></defs><path class="a" d="M39,2.25H2.991A3.013,3.013,0,0,0,0,5.278V41.222A3.013,3.013,0,0,0,2.991,44.25H39a3.021,3.021,0,0,0,3-3.028V5.278A3.021,3.021,0,0,0,39,2.25Zm-26.306,36H6.469V18.206H12.7V38.25ZM9.581,15.469a3.609,3.609,0,1,1,3.609-3.609,3.611,3.611,0,0,1-3.609,3.609ZM36.028,38.25H29.8V28.5c0-2.325-.047-5.316-3.234-5.316-3.244,0-3.741,2.531-3.741,5.147V38.25H16.6V18.206h5.972v2.737h.084a6.557,6.557,0,0,1,5.9-3.234c6.3,0,7.472,4.153,7.472,9.553Z" transform="translate(0 -2.25)"/></svg>